<svg xmlns="http://www.w3.org/2000/svg" xml:space="preserve" style="fill-rule:evenodd;clip-rule:evenodd;stroke-linejoin:round;stroke-miterlimit:2" viewBox="0 0 700 700"><path d="M182.074 630.125c33.847 0 43.945-6.732 43.945-29.546 0-17.952-8.228-25.432-35.904-31.603-22.253-5.049-28.798-7.48-28.798-11.594 0-7.48 4.675-9.724 20.196-9.724 14.773 0 19.261 2.431 19.822 11.033h22.44c-.187-23.375-9.724-30.294-42.075-30.294-33.099 0-43.01 6.545-43.01 28.798 0 17.204 8.789 23.749 38.148 29.172 20.196 3.74 26.18 6.919 26.18 14.399 0 8.041-4.862 10.285-20.944 10.098-16.456-.187-21.505-3.553-21.692-14.586h-23.001c-.748 26.18 9.537 33.847 44.693 33.847ZM282.867 628.442h22.066l40.205-97.614h-23.749l-26.741 70.125h-1.496l-26.741-70.125h-23.749l40.205 97.614ZM409.466 630.125c31.229 0 40.579-7.667 41.327-33.286h-22.44c-2.244 10.472-6.358 13.651-17.952 13.651-19.448 0-25.245-6.919-25.245-30.481 0-24.684 5.797-31.977 25.058-31.977 11.968 0 16.082 3.553 17.952 15.708h22.627c-.561-27.302-10.098-35.343-41.701-35.343-36.091 0-46.75 11.781-46.75 51.425 0 38.896 10.846 50.303 47.124 50.303ZM518.674 630.125c33.847 0 43.945-6.732 43.945-29.546 0-17.952-8.228-25.432-35.904-31.603-22.253-5.049-28.798-7.48-28.798-11.594 0-7.48 4.675-9.724 20.196-9.724 14.773 0 19.261 2.431 19.822 11.033h22.44c-.187-23.375-9.724-30.294-42.075-30.294-33.099 0-43.01 6.545-43.01 28.798 0 17.204 8.789 23.749 38.148 29.172 20.196 3.74 26.18 6.919 26.18 14.399 0 8.041-4.862 10.285-20.944 10.098-16.456-.187-21.505-3.553-21.692-14.586h-23.001c-.748 26.18 9.537 33.847 44.693 33.847ZM386.112 411.649c.001-1.005.572-1.934 1.498-2.437 12.039-6.554 91.686-49.852 107.441-58.417 1.673-.91 2.704-2.59 2.704-4.407v-75.125c0-1.249 1.077-2.262 2.407-2.262h32.431c1.329 0 2.407 1.013 2.407 2.262v95.003c0 1.817-1.03 3.497-2.704 4.407L352.71 468.316a5.715 5.715 0 0 1-5.421.001l-179.582-97.499c-1.675-.91-2.707-2.591-2.707-4.409V171.82c0-1.817 1.03-3.496 2.702-4.406l179.59-97.729a5.72 5.72 0 0 1 5.419-.005l142.345 77.108c.646.35 1.083.961 1.183 1.655a2.18 2.18 0 0 1-.67 1.893L387.438 253.525a1.354 1.354 0 0 0-.427.978v31.639c0 1.819-1.032 3.5-2.708 4.409l-31.595 17.143a5.72 5.72 0 0 1-5.416 0l-31.595-17.143c-1.676-.909-2.708-2.59-2.708-4.409v-34.283c0-1.819 1.032-3.499 2.708-4.409l31.594-17.141a5.718 5.718 0 0 1 5.418.001l3.533 1.919a1.26 1.26 0 0 0 1.438-.166l25.562-23.213c.269-.246.402-.595.359-.945a1.132 1.132 0 0 0-.582-.842l-30.293-16.869a5.722 5.722 0 0 0-5.47-.029L278.7 227.369c-1.675.91-2.708 2.59-2.708 4.409v74.445c0 1.819 1.033 3.5 2.708 4.409l68.592 37.223c1.676.91 3.74.91 5.416 0l68.592-37.223c1.676-.909 2.708-2.59 2.708-4.409v-34.96c0-1.249 1.077-2.262 2.407-2.262h32.189c1.33 0 2.408 1.013 2.408 2.262v55.041c0 1.819-1.032 3.5-2.708 4.409l-91.137 49.458a3.175 3.175 0 0 1-2.725.134c-9.133-3.748-19.751-3.748-28.885-.004a3.17 3.17 0 0 1-2.721-.135c-10.316-5.592-76.833-41.689-91.14-49.453-1.676-.909-2.708-2.59-2.708-4.409v-27.339c0-.73.3-1.431.837-1.957a32.79 32.79 0 0 0 .005-46.69 2.733 2.733 0 0 1-.835-1.953c-.007-5.405-.007-28.449-.007-36.675 0-1.815 1.029-3.493 2.699-4.404 15.233-8.303 90.307-49.221 105.593-57.554a5.716 5.716 0 0 1 5.438.003l58.766 32.097a1.578 1.578 0 0 0 1.801-.205l26.122-23.717a.768.768 0 0 0 .251-.667.795.795 0 0 0-.416-.589l-86.536-46.836a5.718 5.718 0 0 0-5.411.002l-142.603 77.387c-1.676.91-2.708 2.59-2.708 4.409v47.966c0 1.157-.75 2.197-1.893 2.626-2.808 1.075-5.478 2.509-7.929 4.174-22.479 15.263-17.025 49.205 7.93 58.751 1.139.429 1.886 1.466 1.886 2.619.006 6.946.006 30.452.006 38.691 0 1.787.997 3.443 2.627 4.364 12.102 6.819 63.76 35.848 107.781 59.312.919.49 1.497 1.397 1.523 2.39.374 11.055 6.543 21.434 16.622 27.332 17.986 10.526 44.902 3.915 52.732-15.223 1.836-4.488 2.826-8.332 2.843-12.969Z" style="fill:#a855f8;fill-rule:nonzero"/></svg>