<svg xmlns="http://www.w3.org/2000/svg" xml:space="preserve" style="fill-rule:evenodd;clip-rule:evenodd;stroke-linejoin:round;stroke-miterlimit:2" viewBox="0 0 370 400"><path d="M509.961 704.301c.111-3.116 1.754-5.937 4.321-7.422 24.031-13.957 141.773-82.055 173.402-100.348 4.827-2.792 7.834-8.184 7.834-14.046V457.099c0-3.921 2.975-7.099 6.646-7.099h48.596c3.671 0 6.646 3.178 6.646 7.099v160.527c0 5.862-3.006 11.254-7.833 14.046L457.117 800.846c-4.44 2.568-9.794 2.57-14.236.004L150.435 631.927c-4.831-2.791-7.841-8.185-7.841-14.051V282.522c0-5.861 3.004-11.251 7.828-14.043L442.89 99.154c4.436-2.568 9.786-2.574 14.228-.014 35.454 20.432 192.786 111.104 230.333 132.744 1.875 1.08 3.151 3.054 3.432 5.309.282 2.254-.465 4.517-2.009 6.084l-176.1 178.791a4.524 4.524 0 0 0-1.274 3.171v50.737c0 5.867-3.012 11.263-7.845 14.052l-46.545 26.868c-4.437 2.561-9.783 2.561-14.22 0l-46.545-26.868c-4.833-2.789-7.845-8.185-7.845-14.052v-51.952c0-5.867 3.012-11.263 7.845-14.052l46.541-26.865c4.439-2.563 9.788-2.561 14.226.003l2.498 1.444c1.239.716 2.766.52 3.811-.49l40.255-38.894c.795-.769 1.195-1.9 1.072-3.038-.122-1.138-.751-2.143-1.689-2.699l-45.898-27.191c-4.461-2.643-9.877-2.674-14.365-.083l-107.928 62.312c-4.832 2.79-7.844 8.185-7.844 14.052v122.954c0 5.867 3.012 11.262 7.844 14.052l108.021 62.365c4.437 2.562 9.785 2.562 14.222 0l108.021-62.365c4.832-2.79 7.844-8.185 7.844-14.052v-54.378c0-1.883.7-3.688 1.946-5.02 1.247-1.331 2.937-2.079 4.7-2.079h48.195c1.763 0 3.453.748 4.7 2.079 1.246 1.332 1.946 3.137 1.946 5.02v89.878c0 5.867-3.011 11.262-7.843 14.051l-146.856 84.788a7.837 7.837 0 0 1-6.983.454c-14.488-5.957-31.074-5.957-45.569-.02a7.817 7.817 0 0 1-6.966-.454c-19.776-11.392-118.203-68.219-146.866-84.768-4.832-2.789-7.843-8.184-7.843-14.051v-42.358c0-2.32.851-4.548 2.37-6.206 20.324-22.522 20.324-57.812.025-80.36-1.512-1.652-2.36-3.87-2.36-6.18-.035-10.81-.035-42.765-.035-58.87 0-5.856 3-11.243 7.819-14.037l169.501-98.292c4.454-2.583 9.83-2.58 14.282.007l94.073 54.665c1.55.901 3.463.657 4.772-.607l41.474-40.061c.56-.542.839-1.34.749-2.141-.091-.802-.541-1.506-1.206-1.889l-139.895-80.556c-4.435-2.554-9.776-2.551-14.208.008L211.892 303.472c-4.832 2.789-7.843 8.184-7.843 14.051v77.792c0 3.585-2.021 6.818-5.121 8.194-3.95 1.759-7.708 3.982-11.2 6.505-36.756 26.553-28.567 85.079 11.215 103.021 3.078 1.378 5.08 4.594 5.08 8.158.026 13.435.026 45.501.026 61.457 0 5.774 2.917 11.098 7.629 13.926 24.682 14.78 104.781 62.568 174.097 101.916 2.549 1.446 4.213 4.202 4.394 7.279 1.227 18.764 11.337 36.189 27.491 46.248 29.886 18.608 74.611 6.92 87.622-26.913 2.783-7.238 4.398-13.532 4.679-20.805Z" style="fill:#a855f7;fill-rule:nonzero" transform="matrix(.6018 0 0 .56344 -85.814 -53.548)"/></svg>