<svg xmlns="http://www.w3.org/2000/svg" xml:space="preserve" style="fill-rule:evenodd;clip-rule:evenodd;stroke-linejoin:round;stroke-miterlimit:2" viewBox="0 0 700 700"><path d="M182.074 630.125c33.847 0 43.945-6.732 43.945-29.546 0-17.952-8.228-25.432-35.904-31.603-22.253-5.049-28.798-7.48-28.798-11.594 0-7.48 4.675-9.724 20.196-9.724 14.773 0 19.261 2.431 19.822 11.033h22.44c-.187-23.375-9.724-30.294-42.075-30.294-33.099 0-43.01 6.545-43.01 28.798 0 17.204 8.789 23.749 38.148 29.172 20.196 3.74 26.18 6.919 26.18 14.399 0 8.041-4.862 10.285-20.944 10.098-16.456-.187-21.505-3.553-21.692-14.586h-23.001c-.748 26.18 9.537 33.847 44.693 33.847ZM282.867 628.442h22.066l40.205-97.614h-23.749l-26.741 70.125h-1.496l-26.741-70.125h-23.749l40.205 97.614ZM409.466 630.125c31.229 0 40.579-7.667 41.327-33.286h-22.44c-2.244 10.472-6.358 13.651-17.952 13.651-19.448 0-25.245-6.919-25.245-30.481 0-24.684 5.797-31.977 25.058-31.977 11.968 0 16.082 3.553 17.952 15.708h22.627c-.561-27.302-10.098-35.343-41.701-35.343-36.091 0-46.75 11.781-46.75 51.425 0 38.896 10.846 50.303 47.124 50.303ZM518.674 630.125c33.847 0 43.945-6.732 43.945-29.546 0-17.952-8.228-25.432-35.904-31.603-22.253-5.049-28.798-7.48-28.798-11.594 0-7.48 4.675-9.724 20.196-9.724 14.773 0 19.261 2.431 19.822 11.033h22.44c-.187-23.375-9.724-30.294-42.075-30.294-33.099 0-43.01 6.545-43.01 28.798 0 17.204 8.789 23.749 38.148 29.172 20.196 3.74 26.18 6.919 26.18 14.399 0 8.041-4.862 10.285-20.944 10.098-16.456-.187-21.505-3.553-21.692-14.586h-23.001c-.748 26.18 9.537 33.847 44.693 33.847ZM386.112 385.951c.001-.931.572-1.789 1.498-2.255 12.039-6.062 91.686-46.113 107.441-54.036 1.673-.841 2.704-2.395 2.704-4.076v-69.491c0-1.155 1.077-2.092 2.407-2.092h32.431c1.329 0 2.407.937 2.407 2.092v87.878c0 1.681-1.03 3.234-2.704 4.076l-179.586 90.32a6.13 6.13 0 0 1-5.421.002l-179.582-90.188c-1.675-.841-2.707-2.396-2.707-4.077V164.108c0-1.68 1.03-3.233 2.702-4.075l179.59-90.399a6.128 6.128 0 0 1 5.419-.005l142.345 71.324c.646.324 1.083.89 1.183 1.532.101.642-.147 1.289-.67 1.751l-108.131 95.45a1.21 1.21 0 0 0-.427.904v29.266c0 1.683-1.032 3.237-2.708 4.079l-31.595 15.857c-1.676.84-3.74.84-5.416 0l-31.595-15.857c-1.676-.842-2.708-2.396-2.708-4.079v-31.711c0-1.683 1.032-3.237 2.708-4.079l31.594-15.855a6.126 6.126 0 0 1 5.418.001l3.533 1.775c.465.234 1.052.171 1.438-.153l25.562-21.473a.975.975 0 0 0 .359-.874c-.044-.325-.26-.613-.582-.779l-30.293-15.603a6.128 6.128 0 0 0-5.47-.027L278.7 215.491c-1.675.842-2.708 2.396-2.708 4.078v68.863c0 1.682 1.033 3.236 2.708 4.078l68.592 34.431a6.129 6.129 0 0 0 5.416 0L421.3 292.51c1.676-.842 2.708-2.396 2.708-4.078v-32.339c0-1.155 1.077-2.092 2.407-2.092h32.189c1.33 0 2.408.937 2.408 2.092v50.914c0 1.682-1.032 3.236-2.708 4.078a4471540 4471540 0 0 0-91.137 45.748 3.413 3.413 0 0 1-2.725.125c-9.133-3.467-19.751-3.467-28.885-.004a3.407 3.407 0 0 1-2.721-.125c-10.316-5.173-76.833-38.563-91.14-45.744-1.676-.842-2.708-2.396-2.708-4.078v-25.29c0-.674.3-1.323.837-1.81 13.021-11.95 13.021-31.234.005-43.187-.536-.487-.835-1.134-.835-1.807-.007-5-.007-26.315-.007-33.924 0-1.68 1.029-3.232 2.699-4.074l105.593-53.238a6.124 6.124 0 0 1 5.438.003l58.766 29.69c.582.294 1.317.216 1.801-.19l26.122-21.938a.682.682 0 0 0 .251-.617.74.74 0 0 0-.416-.545l-86.536-43.324a6.124 6.124 0 0 0-5.411.003l-142.603 71.582c-1.676.842-2.708 2.396-2.708 4.079v44.368c0 1.071-.75 2.032-1.893 2.429a40.234 40.234 0 0 0-7.929 3.861c-22.479 14.119-17.025 45.515 7.93 54.345 1.139.396 1.886 1.356 1.886 2.423.006 6.424.006 28.167.006 35.788 0 1.654.997 3.186 2.627 4.037 12.102 6.308 63.76 33.16 107.781 54.864.919.453 1.497 1.293 1.523 2.211.374 10.226 6.543 19.826 16.622 25.282 17.986 9.737 44.902 3.621 52.732-14.082 1.836-4.15 2.826-7.707 2.843-11.995Z" style="fill:#a855f8;fill-rule:nonzero"/></svg>