<?xml version="1.0" encoding="UTF-8" standalone="no"?>
<!DOCTYPE svg PUBLIC "-//W3C//DTD SVG 1.1//EN" "http://www.w3.org/Graphics/SVG/1.1/DTD/svg11.dtd">
<svg width="100%" height="100%" viewBox="0 0 615 710" version="1.1" xmlns="http://www.w3.org/2000/svg" xmlns:xlink="http://www.w3.org/1999/xlink" xml:space="preserve" xmlns:serif="http://www.serif.com/" style="fill-rule:evenodd;clip-rule:evenodd;stroke-linejoin:round;stroke-miterlimit:2;">
    <g transform="matrix(1,0,0,1,-142.594,-95.0377)">
        <path d="M510.005,702.18C510.008,700.402 510.956,698.761 512.495,697.871C532.499,686.285 664.846,609.74 691.024,594.599C693.805,592.991 695.518,590.021 695.518,586.808L695.518,454C695.518,451.791 697.308,450 699.518,450C710.704,450 742.22,450 753.406,450C755.615,450 757.406,451.791 757.406,454C757.406,477.324 757.406,595.635 757.406,621.949C757.406,625.162 755.694,628.131 752.913,629.74C717.926,649.978 489.526,782.098 454.503,802.357C451.717,803.969 448.282,803.97 445.495,802.36C410.468,782.128 182.095,650.214 147.092,629.996C144.308,628.388 142.594,625.417 142.594,622.203L142.594,278.2C142.594,274.988 144.305,272.02 147.084,270.411C182.063,250.16 410.491,117.911 445.501,97.642C448.285,96.031 451.717,96.027 454.504,97.634C484.973,115.193 660.625,216.423 691.033,233.947C692.106,234.566 692.832,235.647 692.999,236.874C693.166,238.102 692.754,239.337 691.885,240.22C667.101,265.383 523.535,411.143 512.209,422.642C511.755,423.103 511.5,423.724 511.5,424.371C511.5,430.851 511.5,466.737 511.5,480.303C511.5,483.519 509.784,486.49 506.999,488.098C495.632,494.659 465.865,511.842 454.499,518.403C451.715,520.01 448.285,520.01 445.501,518.403C434.135,511.842 404.368,494.659 393.001,488.098C390.216,486.49 388.5,483.519 388.5,480.303C388.5,467.181 388.5,432.819 388.5,419.697C388.5,416.481 390.216,413.51 393.001,411.902C404.367,405.341 434.131,388.16 445.498,381.599C448.284,379.991 451.716,379.992 454.501,381.601C456.604,382.816 458.952,384.173 460.372,384.994C461.145,385.441 462.12,385.321 462.762,384.701C468.728,378.937 497.551,351.088 505.236,343.663C505.684,343.229 505.905,342.611 505.833,341.992C505.76,341.372 505.402,340.822 504.866,340.504C496.353,335.461 466.084,317.529 454.529,310.683C451.731,309.026 448.257,309.006 445.441,310.632C426.08,321.81 350.773,365.289 331.524,376.402C328.74,378.01 327.024,380.981 327.024,384.196L327.024,515.804C327.024,519.019 328.74,521.99 331.524,523.598C350.792,534.722 426.232,578.278 445.5,589.402C448.285,591.01 451.715,591.01 454.5,589.402C473.768,578.278 549.208,534.722 568.476,523.598C571.26,521.99 572.976,519.019 572.976,515.804C572.976,502.26 572.976,466.092 572.976,454C572.976,451.791 574.766,450 576.976,450C588.103,450 619.336,450 630.463,450C632.673,450 634.463,451.791 634.463,454C634.463,476.569 634.463,533.762 634.463,551.304C634.463,554.519 632.748,557.49 629.963,559.098C606.19,572.823 495.662,636.637 478.526,646.531C477.141,647.33 475.458,647.418 473.997,646.769C458.821,640.143 441.179,640.143 426,646.762C424.542,647.41 422.861,647.321 421.479,646.523C404.338,636.637 293.81,572.823 270.037,559.098C267.252,557.49 265.537,554.519 265.537,551.304C265.537,539.45 265.537,510.829 265.537,502.972C265.537,501.682 266.035,500.442 266.928,499.512C288.563,476.674 288.563,439.818 266.936,416.973C266.045,416.044 265.548,414.807 265.548,413.52C265.537,403.964 265.537,363.227 265.537,348.685C265.537,345.475 267.246,342.509 270.022,340.899C295.333,326.221 420.08,253.883 445.48,239.153C448.275,237.532 451.724,237.534 454.517,239.157C472.783,249.771 540.745,289.264 552.165,295.9C553.132,296.462 554.354,296.313 555.158,295.537C561.917,289.008 591.853,260.091 598.563,253.61C598.88,253.304 599.034,252.868 598.98,252.431C598.926,251.995 598.67,251.609 598.289,251.39C583.919,243.115 477.76,181.985 454.497,168.59C451.714,166.987 448.287,166.989 445.506,168.595C415.037,186.186 239.037,287.8 208.549,305.402C205.764,307.01 204.049,309.981 204.049,313.196C204.049,330.191 204.049,383.842 204.049,397.992C204.048,400.038 202.803,401.876 200.903,402.635C196.237,404.536 191.801,407.071 187.728,410.014C150.376,436.997 159.439,497.001 200.905,513.876C202.797,514.634 204.038,516.468 204.038,518.507C204.049,530.785 204.049,572.34 204.049,586.905C204.049,590.065 205.706,592.993 208.414,594.62C228.523,606.676 314.361,657.994 387.508,699.475C389.035,700.341 389.996,701.945 390.04,703.7C390.661,723.244 400.912,741.591 417.66,752.019C447.546,770.627 492.271,758.939 505.282,725.106C508.332,717.173 509.978,710.376 510.005,702.18Z" style="fill-rule:nonzero;"/>
    </g>
</svg>
