<svg xmlns="http://www.w3.org/2000/svg" xml:space="preserve" width="700" height="700" style="fill-rule:evenodd;clip-rule:evenodd;stroke-linejoin:round;stroke-miterlimit:2"><path d="M182.074 630.125c33.847 0 43.945-6.732 43.945-29.546 0-17.952-8.228-25.432-35.904-31.603-22.253-5.049-28.798-7.48-28.798-11.594 0-7.48 4.675-9.724 20.196-9.724 14.773 0 19.261 2.431 19.822 11.033h22.44c-.187-23.375-9.724-30.294-42.075-30.294-33.099 0-43.01 6.545-43.01 28.798 0 17.204 8.789 23.749 38.148 29.172 20.196 3.74 26.18 6.919 26.18 14.399 0 8.041-4.862 10.285-20.944 10.098-16.456-.187-21.505-3.553-21.692-14.586h-23.001c-.748 26.18 9.537 33.847 44.693 33.847Zm100.793-1.683h22.066l40.205-97.614h-23.749l-26.741 70.125h-1.496l-26.741-70.125h-23.749l40.205 97.614Zm126.599 1.683c31.229 0 40.579-7.667 41.327-33.286h-22.44c-2.244 10.472-6.358 13.651-17.952 13.651-19.448 0-25.245-6.919-25.245-30.481 0-24.684 5.797-31.977 25.058-31.977 11.968 0 16.082 3.553 17.952 15.708h22.627c-.561-27.302-10.098-35.343-41.701-35.343-36.091 0-46.75 11.781-46.75 51.425 0 38.896 10.846 50.303 47.124 50.303Zm109.208 0c33.847 0 43.945-6.732 43.945-29.546 0-17.952-8.228-25.432-35.904-31.603-22.253-5.049-28.798-7.48-28.798-11.594 0-7.48 4.675-9.724 20.196-9.724 14.773 0 19.261 2.431 19.822 11.033h22.44c-.187-23.375-9.724-30.294-42.075-30.294-33.099 0-43.01 6.545-43.01 28.798 0 17.204 8.789 23.749 38.148 29.172 20.196 3.74 26.18 6.919 26.18 14.399 0 8.041-4.862 10.285-20.944 10.098-16.456-.187-21.505-3.553-21.692-14.586h-23.001c-.748 26.18 9.537 33.847 44.693 33.847ZM385.266 194.236c-10.334-6.07-22.403-9.611-35.266-9.611-38.301 0-69.375 31.074-69.375 69.375s31.074 69.375 69.375 69.375 69.375-31.074 69.375-69.375h46.25c0 53.115-35.844 97.92-84.695 111.434-5.782-11.202-17.416-18.934-30.93-18.934s-25.148 7.732-30.93 18.934c-37.361-10.334-67.062-38.952-79.058-75.59 10.406-5.998 17.416-17.199 17.416-30.135 0-14.02-8.311-26.088-20.235-31.58 11.78-51.381 57.813-89.754 112.807-89.754 25.654 0 49.357 8.383 68.58 22.547l16.477-16.477C411.57 126.09 382.086 115.25 350 115.25c-67.135 0-123.068 47.623-135.932 111-14.959 3.83-25.943 17.416-25.943 33.531 0 17.199 12.502 31.508 28.979 34.254 13.947 46.467 51.669 82.672 99.003 94.596 3.397 15.537 17.272 27.244 33.893 27.244 16.621 0 30.496-11.707 33.893-27.316C444.162 373.455 488.75 318.967 488.75 254H535c0 102.184-82.816 185-185 185s-185-82.816-185-185S247.816 69 350 69c44.877 0 85.924 15.971 118.01 42.492l25.799-25.871 12.285-12.285 24.498 24.57-12.213 12.285-125.742 125.743c2.385 5.564 3.685 11.634 3.685 18.066 0 25.51-20.74 46.25-46.25 46.25-25.509 0-46.25-20.74-46.25-46.25s20.741-46.25 46.25-46.25c6.432 0 12.502 1.301 18.067 3.686l17.199-17.2h-.072Z" style="fill:#a855f8;fill-rule:nonzero"/></svg>