<svg xmlns="http://www.w3.org/2000/svg" xml:space="preserve" style="fill-rule:evenodd;clip-rule:evenodd;stroke-linecap:round;stroke-linejoin:round" viewBox="0 0 701 701"><path d="M0 0h701v701H0z" style="fill:#fff"/><path d="M.5.5h700v700H.5z" style="fill:#a855f7"/><path d="M.5.5h700v700H.5z" style="fill:none;stroke:gray;stroke-width:1px"/><path d="M169.671 630.812c28.985 0 38.709-5.797 44.88-26.928 4.862-17.391-.374-25.058-25.058-31.229-20.757-5.984-25.806-8.976-24.123-14.586 3.179-11.407 10.472-15.334 28.985-15.334 14.399 0 18.326 1.87 17.017 11.033l14.96 1.496c4.488-19.822-2.805-26.367-31.416-26.367s-38.148 5.61-43.945 25.993c-4.862 16.83 1.87 23.936 27.302 28.985 19.635 4.675 24.123 8.228 21.505 17.391-3.553 11.968-10.846 15.895-29.733 15.708-16.83-.187-20.757-2.992-18.139-14.96l-15.334-1.496c-6.545 22.814 1.309 30.294 33.099 30.294Zm102.476-1.87h16.643l64.702-97.614h-16.83l-50.864 79.475h-1.309l-5.236-79.475h-16.082l8.976 97.614Zm124.729 1.87c25.619 0 35.156-5.797 43.01-28.237h-15.334c-5.984 11.407-12.155 14.025-26.18 14.025-20.383 0-23.749-7.48-16.082-34.595 8.602-29.546 18.513-38.896 40.392-38.896 12.529 0 15.521 3.179 14.212 16.082h14.96c5.423-23.936-1.683-30.294-29.733-30.294-31.416 0-43.384 11.033-54.604 49.742-11.407 39.831-4.301 52.173 29.359 52.173Zm109.395 0c28.985 0 38.709-5.797 44.88-26.928 4.862-17.391-.374-25.058-25.058-31.229-20.757-5.984-25.806-8.976-24.123-14.586 3.179-11.407 10.472-15.334 28.985-15.334 14.399 0 18.326 1.87 17.017 11.033l14.96 1.496c4.488-19.822-2.805-26.367-31.416-26.367s-38.148 5.61-43.945 25.993c-4.862 16.83 1.87 23.936 27.302 28.985 19.635 4.675 24.123 8.228 21.505 17.391-3.553 11.968-10.846 15.895-29.733 15.708-16.83-.187-20.757-2.992-18.139-14.96l-15.334-1.496c-6.545 22.814 1.309 30.294 33.099 30.294ZM350.5 81.063c-95.752 0-173.437 77.685-173.437 173.437 0 95.752 77.685 173.438 173.437 173.438 95.752 0 173.438-77.686 173.438-173.438 0-3.18 2.601-5.781 5.781-5.781 3.179 0 5.781 2.601 5.781 5.781 0 102.184-82.816 185-185 185s-185-82.816-185-185 82.816-185 185-185c48.996 0 93.584 19.078 126.682 50.152l31.146-31.146c2.24-2.24 5.926-2.24 8.166 0s2.24 5.926 0 8.166L354.619 258.547c-2.24 2.24-5.926 2.24-8.166 0s-2.24-5.926 0-8.166l24.209-24.209c-5.637-4.047-12.574-6.432-20.09-6.432-19.15 0-34.687 15.537-34.687 34.688 0 19.15 15.537 34.687 34.687 34.687 19.151 0 34.688-15.537 34.688-34.687 0-3.18 2.601-5.782 5.781-5.782 3.18 0 5.781 2.602 5.781 5.782 0 25.51-20.74 46.25-46.25 46.25-25.509 0-46.25-20.74-46.25-46.25s20.741-46.25 46.25-46.25c10.696 0 20.524 3.613 28.328 9.683l40.975-40.902c-18.428-16.477-42.709-26.521-69.375-26.521-41.842 0-77.902 24.642-94.451 60.269-1.347 2.855-4.784 4.12-7.66 2.818-2.891-1.3-4.119-4.769-2.819-7.66 18.428-39.601 58.463-66.99 104.93-66.99 29.846 0 57.09 11.346 77.541 29.846l40.975-40.903c-31.075-28.978-72.7-46.755-118.516-46.755ZM234.875 225.594c15.964 0 28.906 12.942 28.906 28.906 0 15.964-12.942 28.906-28.906 28.906-15.964 0-28.906-12.942-28.906-28.906 0-15.964 12.942-28.906 28.906-28.906Zm17.344 28.906c0-9.579-7.765-17.344-17.344-17.344s-17.344 7.765-17.344 17.344 7.765 17.344 17.344 17.344 17.344-7.765 17.344-17.344Zm69.375 115.625c0-15.964 12.942-28.906 28.906-28.906 15.965 0 28.906 12.942 28.906 28.906 0 15.965-12.941 28.906-28.906 28.906-15.964 0-28.906-12.941-28.906-28.906Zm28.906 17.344c9.579 0 17.344-7.765 17.344-17.344s-7.765-17.344-17.344-17.344-17.344 7.765-17.344 17.344 7.765 17.344 17.344 17.344ZM466.125 254.5c0 46.467-27.389 86.502-66.918 104.93-2.891 1.373-6.359.072-7.66-2.819-1.301-2.89-.072-6.359 2.818-7.66 35.555-16.549 60.198-52.609 60.198-94.451 0-3.18 2.601-5.781 5.781-5.781 3.179 0 5.781 2.601 5.781 5.781Zm-210.076 43.793c10.334 22.258 28.328 40.252 50.586 50.586 2.855 1.347 4.12 4.784 2.818 7.66-1.301 2.891-4.769 4.119-7.66 2.818-24.715-11.49-44.732-31.507-56.223-56.222-1.373-2.891-.072-6.36 2.819-7.66 2.89-1.301 6.359-.073 7.66 2.818Z" style="fill:#fff;fill-rule:nonzero"/></svg>
