<svg xmlns="http://www.w3.org/2000/svg" xml:space="preserve" style="fill-rule:evenodd;clip-rule:evenodd;stroke-linejoin:round;stroke-miterlimit:2" viewBox="0 0 512 512"><path d="M32 256C32 132.3 132.3 32 256 32c56.1 0 107.4 20.6 146.7 54.7l-34.1 34.1C338.1 95.3 298.8 80 256 80c-72.2 0-134.2 43.5-161.3 105.6l29.3 12.8c22.2-50.9 73-86.4 132-86.4 34 0 65.2 11.8 89.9 31.5l-34.3 34.3C295.9 166.6 276.7 160 256 160c-53 0-96 43-96 96s43 96 96 96 96-43 96-96h-32c0 35.3-28.7 64-64 64s-64-28.7-64-64 28.7-64 64-64c11.9 0 23 3.2 32.5 8.9L233.4 256l22.6 22.6L502.6 32 480 9.4 425.4 64C380.2 24.2 320.9 0 256 0 114.6 0 0 114.6 0 256s114.6 256 256 256 256-114.6 256-256h-32c0 123.7-100.3 224-224 224S32 379.7 32 256Zm281.6 132 12.8 29.3C388.5 390.2 432 328.2 432 256h-32c0 59-35.5 109.8-86.4 132ZM124 313.6l-29.3 12.8c17.7 40.6 50.3 73.2 90.9 90.9l12.8-29.3c-33.2-14.5-59.9-41.2-74.4-74.4Zm-4-57.6c0-13.166-10.834-24-24-24s-24 10.834-24 24 10.834 24 24 24 24-10.834 24-24Zm136 184c13.166 0 24-10.834 24-24s-10.834-24-24-24-24 10.834-24 24 10.834 24 24 24Z" style="fill:#a855f7;fill-rule:nonzero"/></svg>